<?xml version="1.0" encoding="utf-8"?>
<!-- Generator: Adobe Illustrator 17.0.1, SVG Export Plug-In . SVG Version: 6.00 Build 0)  -->
<!DOCTYPE svg PUBLIC "-//W3C//DTD SVG 1.1//EN" "http://www.w3.org/Graphics/SVG/1.1/DTD/svg11.dtd">
<svg version="1.1" id="Слой_1" xmlns="http://www.w3.org/2000/svg" xmlns:xlink="http://www.w3.org/1999/xlink" x="0px" y="0px"
	 width="20px" height="20px" viewBox="0 0 20 20" enable-background="new 0 0 20 20" xml:space="preserve">
<g>
	<path fill="#CCCCCC" d="M18.892,1.018c0.06,0,0.108,0.049,0.108,0.109v17.745c0,0.06-0.049,0.109-0.108,0.109H1.16
		c-0.06,0-0.108-0.049-0.108-0.109V1.127c0-0.06,0.049-0.109,0.108-0.109H18.892 M18.892,0.018H1.16
		c-0.612,0-1.108,0.497-1.108,1.109v17.745c0,0.613,0.496,1.109,1.108,1.109h17.732c0.612,0,1.108-0.496,1.108-1.109V1.127
		C20,0.514,19.504,0.018,18.892,0.018L18.892,0.018z"/>
</g>
</svg>
