<?xml version="1.0" encoding="utf-8"?>
<!-- Generator: Adobe Illustrator 16.0.0, SVG Export Plug-In . SVG Version: 6.00 Build 0)  -->
<!DOCTYPE svg PUBLIC "-//W3C//DTD SVG 1.1//EN" "http://www.w3.org/Graphics/SVG/1.1/DTD/svg11.dtd">
<svg version="1.1" id="Layer_1" xmlns="http://www.w3.org/2000/svg" xmlns:xlink="http://www.w3.org/1999/xlink" x="0px" y="0px"
	 width="50px" height="50px" viewBox="0 0 50 50" enable-background="new 0 0 50 50" xml:space="preserve">
<g>
	<defs>
		<rect id="SVGID_1_" width="50" height="50"/>
	</defs>
	<clipPath id="SVGID_2_">
		<use xlink:href="#SVGID_1_"  overflow="visible"/>
	</clipPath>
	<path clip-path="url(#SVGID_2_)" fill="#F1C456" d="M30,37.5c0,4.142-3.875,7.5-3.875,7.5s-3.875-3.358-3.875-7.5
		s1.735-7.5,3.875-7.5C28.265,30,30,33.358,30,37.5"/>
	<path clip-path="url(#SVGID_2_)" fill="#F9DEB0" d="M28.031,37.25c0,2.761-1.984,5-1.984,5s-1.984-2.239-1.984-5s0.889-5,1.984-5
		C27.144,32.25,28.031,34.489,28.031,37.25"/>
	<path clip-path="url(#SVGID_2_)" fill="#B6B6B4" d="M17.919,36.625l-0.624,1.047l-3.337,3.245v-11
		c0.63-1.804,1.544-3.184,2.474-4.219L17.919,36.625z"/>
	<path clip-path="url(#SVGID_2_)" fill="#B6B6B4" d="M31.917,35V23c0,0,4.25,1.667,6.083,6.917v11L31.917,35z"/>
	<path clip-path="url(#SVGID_2_)" fill="#93908E" d="M16.028,26.173C17.92,23.833,20.042,23,20.042,23v12l-2.979,2.897
		L16.028,26.173z"/>
	<path clip-path="url(#SVGID_2_)" fill="#D52139" d="M19.788,37C18.07,33.085,17,27.62,17,21.5C17,9.626,23.958,0,26,0
		c1.958,0,9,9.626,9,21.5c0,6.148-1.08,11.581-2.812,15.5H19.788z"/>
	<path clip-path="url(#SVGID_2_)" fill="#C0222F" d="M26,0c-2.042,0-9,9.626-9,21.5c0,6.12,1.07,11.585,2.788,15.5h1.295
		C19.083,9.083,26.833,0,26,0"/>
	<path clip-path="url(#SVGID_2_)" fill="#DFE6EA" d="M29.75,16c0,2.071-1.679,3.75-3.75,3.75c-2.071,0-3.75-1.679-3.75-3.75
		s1.679-3.75,3.75-3.75C28.071,12.25,29.75,13.929,29.75,16"/>
	<path clip-path="url(#SVGID_2_)" fill="#B3222C" d="M26,13c1.654,0,3,1.346,3,3s-1.346,3-3,3c-1.654,0-3-1.346-3-3S24.346,13,26,13
		 M26,12c-2.209,0-4,1.791-4,4s1.791,4,4,4s4-1.791,4-4S28.209,12,26,12"/>
	<path clip-path="url(#SVGID_2_)" fill="#B6B6B4" d="M26,39.897L26,39.897l-0.934-13.91C25.03,25.453,25.454,25,25.99,25h0.02
		c0.536,0,0.96,0.454,0.924,0.988L26,39.897z"/>
	<path clip-path="url(#SVGID_2_)" fill="#D1DBE0" d="M21.083,43c-0.749,0-1.394,0.417-1.737,1.026
		C19.259,44.015,19.173,44,19.083,44c-0.822,0-1.525,0.48-1.865,1.171C17.013,45.065,16.784,45,16.538,45
		c-0.284,0-0.546,0.083-0.772,0.22c0.119-0.214,0.192-0.457,0.192-0.72c0-0.828-0.672-1.5-1.5-1.5c-0.657,0-1.209,0.425-1.412,1.012
		c-1.6,0.065-2.88,1.372-2.88,2.988c0,1.657,1.344,3,3,3c1.344,0,2.467-0.889,2.85-2.106c0.003,0.001,0.006,0.003,0.01,0.004
		c0.187,0.651,0.782,1.132,1.494,1.132c0.617,0,1.145-0.36,1.399-0.879c0.055,0.004,0.108,0.017,0.164,0.017
		c0.825,0,1.532-0.484,1.869-1.18C20.996,46.99,21.038,47,21.083,47c1.105,0,2-0.895,2-2S22.188,43,21.083,43"/>
	<path clip-path="url(#SVGID_2_)" fill="#D1DBE0" d="M37.5,47c-0.312,0-0.602,0.096-0.843,0.259C36.481,47.103,36.255,47,36,47
		c0-1.105-0.895-2-2-2c-0.09,0-0.176,0.015-0.263,0.027C33.394,44.417,32.749,44,32,44c-1.105,0-2,0.895-2,2s0.895,2,2,2
		c0.09,0,0.176-0.015,0.263-0.027c0.188,0.335,0.468,0.608,0.808,0.788c0.132,0.683,0.729,1.197,1.451,1.197
		c0.64,0,1.18-0.408,1.386-0.977C35.939,48.984,35.967,49,36,49c0.031,0,0.056-0.015,0.086-0.017C36.288,49.573,36.841,50,37.5,50
		c0.828,0,1.5-0.672,1.5-1.5S38.328,47,37.5,47"/>
</g>
</svg>
