<?xml version="1.0" encoding="utf-8"?>
<!-- Generator: Adobe Illustrator 22.1.0, SVG Export Plug-In . SVG Version: 6.00 Build 0)  -->
<svg version="1.0" id="Layer_1" xmlns="http://www.w3.org/2000/svg" xmlns:xlink="http://www.w3.org/1999/xlink" x="0px" y="0px"
	 viewBox="0 0 200 200" style="enable-background:new 0 0 200 200;" xml:space="preserve">
<style type="text/css">
	.st0{fill:none;stroke:#FF0000;stroke-miterlimit:10;}
</style>
<path class="st0" d="M114.8,86.1c-1.2,4.2-2.4,8.4-3.6,12.6c-1,3.7-2.1,7.3-3.6,10.8c-1.6,3.8-3.9,7.5-7.4,9.7
	c-3.5,2.2-8.3,2.7-11.6,0.2c-1.7-1.3-4.4-3-5.2-5c-2.6-7.1,0-17.4,6-22c3.2-2.5,5.6-4.9,9-6c2.2-0.7,6-1,8-1c2,0,5.5,0,7.5,0"/>
<path class="st0" d="M114.5,85.5c-2.2,8.6-3.5,17.9-2.9,26.7c0.1,1.5,0.2,3,0.9,4.4c1.4,2.7,4.9,3.9,7.9,3.3c3-0.6,5.5-2.7,7.4-5.1
	c3.6-4.6,5.3-10.4,5.2-16.2c-0.1-5.8-1.9-11.5-4.9-16.4c-3.5-5.8-8.7-10.8-15.2-12.8c-3.8-1.1-7.8-1.1-11.7-0.9
	c-6.9,0.5-14,1.2-18.8,6.1c-1.3,1.4-6,5.4-7,7c-4.1,6.2-6.9,11.6-8,19s-0.1,17.8,4,24c2.1,3.2,7,8.6,10,11c3.6,3,8.4,2.2,13,3
	c3.2,0.5,7.8,0.7,11,0c4.9-1.1,9.5-3.6,14-6"/>
<path class="st0" d="M148.3,90.3c11.5-13.9,24.1-25.4,36.2-38.8"/>
<path class="st0" d="M12.6,49.4c11.6,12.8,28,28.5,39.9,41.1"/>
<path class="st0" d="M12.5,49.5c49,1,95.1,3.2,142,1c10.8-0.5,20,0,30,1"/>
<path class="st0" d="M186.5,72.5c-0.6,25.6,0,52,0,78"/>
<path class="st0" d="M12.1,73.6c-0.6,28.9-0.1,56.1,0.4,83.9"/>
<path class="st0" d="M12.5,157.5c34.5-0.1,66.8,1,101,1c23,0,42-1,63,0c2.8,0.1,4.4,1.2,7,0s4.5-5.6,3-8"/>
</svg>
