<?xml version="1.0" encoding="utf-8"?>
<!-- Generator: Adobe Illustrator 22.1.0, SVG Export Plug-In . SVG Version: 6.00 Build 0)  -->
<svg version="1.0" id="Layer_1" xmlns="http://www.w3.org/2000/svg" xmlns:xlink="http://www.w3.org/1999/xlink" x="0px" y="0px"
	 viewBox="0 0 200 200" style="enable-background:new 0 0 200 200;" xml:space="preserve">
<style type="text/css">
	.st0{fill:none;stroke:#000000;stroke-miterlimit:10;}
</style>
<path class="st0" d="M144.4,24.4c-0.1,9.2-0.1,18.5-0.2,27.7c-7.7-0.2-15.6,0.2-22.4,1.1c-1.8,0.2-3.4,1.5-4.6,2.8
	c-1.2,1.4-1.8,3.3-2.3,5.1c-2.1,8.7-2.4,16.6-0.4,25.3c8,1,18.7,1,29,1c-2.1,10.1-2.7,20-4,30.1c-7.9-0.6-17.1-0.5-25-1.1
	c-0.9,25.6-1.8,50.8-1.4,75.7c-10.3-0.8-20.7-1.6-31-2.4c0.5-23.1,2.1-48.4,0.4-73.3c-7.7-0.7-18.4,1.3-26,0
	c-0.7-9.3-0.3-20.6-0.2-30c8.9,0.8,18.2-0.1,27.2,0c-1-10-1-16-1.5-25c-0.5-10.7,4.3-22,12.6-28.7c7-5.6,16.9-8.4,25.9-9.3
	c7.7-0.7,16,0,24,1"/>
</svg>
