<?xml version="1.0" encoding="utf-8"?>
<!-- Generator: Adobe Illustrator 22.1.0, SVG Export Plug-In . SVG Version: 6.00 Build 0)  -->
<svg version="1.0" id="Layer_1" xmlns="http://www.w3.org/2000/svg" xmlns:xlink="http://www.w3.org/1999/xlink" x="0px" y="0px"
	 viewBox="0 0 200 200" style="enable-background:new 0 0 200 200;" xml:space="preserve">
<style type="text/css">
	.st0{fill:none;stroke:#000000;stroke-miterlimit:10;}
</style>
<path class="st0" d="M184,50.5c0.5,31.8,0,63.1,0.5,92.3c0.2,9.7-1.4,19.9-7.1,27.7c-4.6,6.4-10.2,11-17.8,13s-17.4,2.2-25.3,1.9
	c-26.8-0.9-55.8,1.5-83.7,0.1c-7-0.4-13-2-19-6c-9.3-6.2-14.3-18-16-29c-1.1-7-0.3-13,0-20c0.9-20.3,0.1-41.5,0.1-61.9
	c0-13,0-27,7.6-37.5c6.4-8.9,18.3-14.9,29.3-14.6c12.5,0.3,28.1,0,38,0c15,0,17.8,0.1,30-0.2c9.3-0.3,18.6-0.8,27.8,0.4
	c9.2,1.2,18.4,4.2,25.4,10.2c7,6.1,11.5,15.5,10,24.7"/>
<path class="st0" d="M163.5,71.2c0.9,20.1,0.4,40.2-1.2,60.3c-0.4,4.8-1.6,8.8-3.8,13c-1.8,3.3-9,10.8-12,13
	c-9.7,7.1-17.1,5.3-29.1,6.2c-15.6,1.2-31.2,0.9-46.7-0.7c-5.7-0.6-11.6-1.5-16.6-4.4c-3.5-2.1-6.3-5.1-8.8-8.4
	c-3.5-4.8-7.3-9.9-7.9-15.8c-1.9-17.8-1.5-37.8,0.1-56.8c0.6-7.9,1.6-16,5.5-22.8c4.1-7.3,11.9-11.9,19.9-14s16.5-2.1,24.9-2
	c10,0.1,20.8-0.2,30.8-0.1c6.6,0.1,12.5,0.5,18.9,2c6.4,1.5,12,5.9,16.1,11c5.1,6.3,9.6,11.9,10,20"/>
<path class="st0" d="M152.4,73.3c1.5,16.5-1.1,32.7-0.9,49.2c0.1,5.2-0.8,10.9-3.1,15.5c-1.8,3.5-4.9,8.5-8.9,9.5
	c-8.9,2.2-16.8,4.8-26,5.2c-9.2,0.4-18.4-0.6-27.6-0.8c-7.9-0.2-16.3-0.1-23.3-3.8c-9.6-5.2-13.1-11.7-14.1-22.5
	c-1-10.9-0.1-26.8-0.5-37.7c-0.2-4.7,0.1-10.6,0.5-15.3s4-11,6-14c1.6-2.3,3.5-3.8,6-5c6.9-3.2,8.4-3.1,16-4c10.6-1.3,26.3,0.4,37,0
	c4.9-0.2,10.1,0.1,14.9,0.3c4.9,0.2,9.3,2.6,13.1,5.7c3.7,3.1,6.3,6.4,8.2,10.9c1.8,4.3,3.7,8.9,3.1,13.6"/>
<path class="st0" d="M129.6,89.6c5.1,10.2,1.8,23-5.6,31.7c-1.7,2-3.5,3.8-5.7,5.2c-4.2,2.8-9.9,6.1-14.9,6s-12.2-1.4-17-3
	c-3-1-7.1-3.4-9-6c-3-4-4.7-7.3-6.5-12.3c-3.6-9.9-1.5-21.7,5.4-30c1.5-1.7,2.6-3.7,4.5-5.1c1.9-1.3,9.7-5.2,13.6-5.7
	c9.4-1.1,15.5,0,22,4c7,4.3,9.8,7.5,13,15"/>
<path class="st0" d="M84.3,87.9c-3.7,6.1-6.1,16.3-2.8,22.6s11.9,10.6,19,11c2.3,0.1,7-1,9-2c3-1.5,6.1-5.3,8-8c1.4-2,3-6.6,3-9
	c0-8-1.8-11.5-7-16s-9.2-6-16-5c-4.6,0.7-7,0-13,6"/>
<path class="st0" d="M127.5,63.5"/>
<path class="st0" d="M126.5,66.5c-0.3,0,0.4-3,0.7-3.4c1.4-1.7,3.3-3.6,5.3-3.6c3,0,5,0,8,2c0.6,0.4,2,3.3,2,4c0,2-1,4.2-2,6
	s-3.7,2.9-5.8,3.1C131.7,74.8,125.5,70.5,126.5,66.5"/>
</svg>
