<?xml version="1.0" encoding="utf-8"?>
<!-- Generator: Adobe Illustrator 22.1.0, SVG Export Plug-In . SVG Version: 6.00 Build 0)  -->
<svg version="1.0" id="Layer_1" xmlns="http://www.w3.org/2000/svg" xmlns:xlink="http://www.w3.org/1999/xlink" x="0px" y="0px"
	 viewBox="0 0 200 200" style="enable-background:new 0 0 200 200;" xml:space="preserve">
<style type="text/css">
	.st0{fill:none;stroke:#FF1717;stroke-miterlimit:10;}
</style>
<path class="st0" d="M160.5,63.5c-1.7,2.1-9.4,9.8-11.1,11.9"/>
<path class="st0" d="M142.6,58.5c4.8,0.1,9.3-2.3,13.5-4.6c0.7-0.4,1.4-0.8,2.1-1.2c-1.8,3.4-3,6.1-5.8,8.8c-2,2-4,3-5.7,4.3
	c5-0.6,9.9-1.5,14.7-3.3"/>
<path class="st0" d="M77,149"/>
<path class="st0" d="M149.3,75.4c1.6,17.3-6.3,33.7-16.4,47.7c-3.7,5.2-9.6,10.1-12.4,12.4c-5.2,4.4-29.9,15.8-37,14"/>
<path class="st0" d="M42.5,85.5c4.1-0.2,7.4,3.3,11.5,3.1c-5.6-3.5-8.9-8.7-10.5-15.1s-0.3-13.3,3-19"/>
<path class="st0" d="M84.5,149.5c-13.4,1.7-35.9-2.6-46.7-10.7c9.9-0.2,19.5-2.9,29-5.6c3.6-1,6.2-2.8,8.6-5.7
	c-5.5-0.5-9.9-1.1-14.6-4.1s-8.6-7.4-8.4-12.9c3.2,0.7,7.8-0.2,11-1c-9.3,2-23.1-16.3-21-24"/>
<path class="st0" d="M46.2,53.8c12.4,15.5,32.5,27.5,52.3,27.7"/>
<path class="st0" d="M98.5,81.5c0.1-4.5,0-12,2.3-15.8c2.3-3.8,4-8.3,7.9-10.6c4-2.4,9.2-4,13.8-4.6c7-1,15,3,20,8"/>
</svg>
