<?xml version="1.0" encoding="utf-8"?>
<!-- Generator: Adobe Illustrator 22.1.0, SVG Export Plug-In . SVG Version: 6.00 Build 0)  -->
<svg version="1.0" id="Layer_1" xmlns="http://www.w3.org/2000/svg" xmlns:xlink="http://www.w3.org/1999/xlink" x="0px" y="0px"
	 viewBox="0 0 200 200" style="enable-background:new 0 0 200 200;" xml:space="preserve">
<style type="text/css">
	.st0{fill:none;stroke:#000000;stroke-miterlimit:10;}
</style>
<path class="st0" d="M81.8,77.8c-1,16.8-0.9,33.6,0.1,50.3"/>
<path class="st0" d="M82.1,127.2c7.9-5.3,16.1-8.9,24.4-13.7c5.9-3.4,11.9-7,18-10"/>
<path class="st0" d="M124.5,103.5c-3-2-7-3.9-10-6c-1.8-1.3-5.1-2.8-7-4c-6.8-4.3-12.7-7.2-19.4-11.5c-2.2-1.4-4.5-2.8-6.6-4.5"/>
<path class="st0" d="M179.4,66.7c1.4,23.7,4.4,47.5,0.1,70.8c-0.7,3.9-2,7.6-4,11c-4.1,6.8-13.2,9.9-21,11s-16.1,1-24,1
	c-5.1,0-9.9,0.3-15,0.5c-16,0.5-30.1,0.5-45-0.5c-11.5-0.7-22.5-1.3-34-2c-3.8-0.2-10.1-1.7-12-5"/>
<path class="st0" d="M24.5,153.5c-3.3-1.8-4.3-5.8-5.6-9.3s-1.7-7.3-2.1-11.1C14.6,110.7,14,88,17.5,65.8c0.2-1.5,0.5-3,1.1-4.4
	c0.8-2,1.5-4.3,2.9-5.9c4-4.6,8-6.9,14-8"/>
<path class="st0" d="M35.5,47.5c-8.6,1.3,8.9-1.5,19.2-2.3c20.4-1.6,41-0.9,61.5-0.8c5.7,0,11.3,0.1,17,0.2
	c9.4,0.2,18.9,0.6,28.1,2.5c3.4,0.7,6.8,1.7,9.6,3.7c4.7,3.4,6.7,10.1,8.6,15.6"/>
</svg>
