<?xml version="1.0" encoding="UTF-8"?><svg xmlns="http://www.w3.org/2000/svg"><symbol id="cache" viewBox="0 0 30 30"><path d="M25 8H5c-1.1 0-2 .9-2 2v10c0 1.1.9 2 2 2h20c1.1 0 2-.9 2-2V10c0-1.1-.9-2-2-2zm-3.9 12H8.9c-.3-1.6-1.4-3.5-3.9-3.9v-2.2c1.6-.3 3.5-1.4 3.9-3.9h12.2c.4 2.5 2.4 3.6 3.9 3.9v2.2c-1.6.3-3.5 1.4-3.9 3.9zm3.9-8.2c-.7-.2-1.6-.7-1.9-1.8H25v1.8zM6.9 10c-.3 1.1-1.2 1.6-1.9 1.8V10h1.9zM5 18.1c1.2.3 1.6 1.2 1.9 1.9H5v-1.9zM23.1 20c.3-1.1 1.2-1.6 1.9-1.8V20h-1.9zM15 11c-2.2 0-4 1.8-4 4s1.8 4 4 4 4-1.8 4-4-1.8-4-4-4zm0 6c-1.1 0-2-.9-2-2s.9-2 2-2 2 .9 2 2-.9 2-2 2z"/></symbol><symbol id="card" viewBox="0 0 30 30"><path d="M25 7H5c-1.1 0-2 .9-2 2v13c0 1.1.9 2 2 2h20c1.1 0 2-.9 2-2V9c0-1.1-.9-2-2-2zm0 2v3H5V9h20zM5 22v-7h20v7H5z"/></symbol><symbol id="cart" viewBox="0 0 20 20"><path d="M14 14H7c-.7 0-1.1-.3-1.4-.6C5 12.9 5 12.1 5 12V5H3c-.5 0-1-.4-1-1s.4-1 1-1h2c1 0 2 .7 2 2v7h6.8c.1-.1.2-.3.2-.4L15.9 7H10c-.5 0-1-.4-1-1s.4-1 1-1h6c.9 0 1.5.3 1.9.8.5.8.1 1.5 0 1.7l-2 4.9c-.1.3-.7 1.6-1.9 1.6z"/><circle cx="7.5" cy="15.5" r="1.5"/><circle cx="12.5" cy="15.5" r="1.5"/></symbol><symbol id="chevron-down" viewBox="0 0 30 30"><path d="M8.508 12.438c0-.2.1-.5.2-.6.4-.4 1-.5 1.4-.1l5.4 4.5 5.4-4.5c.398-.4 1.1-.3 1.398.1.4.4.3 1.1-.1 1.4l-6 5c-.4.3-.9.3-1.3 0l-6-5c-.3-.2-.398-.5-.398-.8z"/></symbol><symbol id="chevron-right" viewBox="0 0 30 30"><path d="M13 22c-.2 0-.5-.1-.6-.2-.4-.4-.5-1-.1-1.4l4.5-5.4-4.5-5.4c-.4-.4-.3-1.1.1-1.4.4-.4 1.1-.3 1.4.1l5 6c.3.4.3.9 0 1.3l-5 6c-.2.3-.5.4-.8.4z"/></symbol><symbol id="close" viewBox="0 0 14 14"><path d="M8.4 7l5.3-5.3c.4-.4.4-1 0-1.4-.4-.4-1-.4-1.4 0L7 5.6 1.7.3C1.3-.1.7-.1.3.3c-.4.4-.4 1 0 1.4L5.6 7 .3 12.3c-.4.4-.4 1 0 1.4.2.2.4.3.7.3s.5-.1.7-.3L7 8.4l5.3 5.3c.2.2.5.3.7.3s.5-.1.7-.3c.4-.4.4-1 0-1.4L8.4 7z"/></symbol><symbol id="close_thin" viewBox="0 0 32 32"><path stroke="#90A0A0" stroke-width="2" stroke-linecap="round" stroke-miterlimit="10" d="M1 31L31 1M1 1l30 30"/></symbol><symbol id="cost" viewBox="0 0 30 30"><path d="M.09 7.746v1.09h1.723v6.726h1.704v-8.53zM20.062 2c-3.91 0-7.23 2.5-8.47 5.984-.05-.07-.092-.15-.148-.212-.51-.576-1.218-.864-2.12-.864-.907 0-1.614.288-2.122.864-.508.576-.76 1.44-.76 2.587v1.88c0 1.152.254 2.015.766 2.587.512.572 1.22.858 2.127.858.902 0 1.607-.286 2.115-.858.11-.125.204-.27.29-.42.33.797.762 1.542 1.294 2.206l-1.174 1.174c-.383-.354-.867-.537-1.355-.537-.51 0-1.023.195-1.414.585l-4.95 4.95c-.78.78-.78 2.048 0 2.83l1.416 1.413c.39.39.902.586 1.414.586.512 0 1.024-.196 1.414-.586l4.95-4.95c.78-.78.78-2.047 0-2.828l-.054-.054 1.168-1.168C15.988 19.26 17.938 20 20.062 20c4.97 0 9-4.03 9-9s-4.03-9-9-9zm-9.554 10.404c0 .703-.098 1.207-.293 1.512-.195.304-.488.457-.88.457-.397 0-.695-.154-.893-.46-.197-.307-.295-.81-.295-1.51v-2.22c0-.69.097-1.19.293-1.497.195-.306.49-.46.884-.46.39 0 .686.154.885.46.198.307.298.806.298 1.497v2.22zM6.97 25.614L5.558 24.2l4.95-4.95 1.414 1.414-4.95 4.95zm8.01-9.815c-.532-.564-.972-1.214-1.295-1.93-.074-.384-.12-.81-.12-1.298v-3.7c0-.19.015-.358.025-.532.468-1.134 1.228-2.116 2.183-2.86.07-.005.136-.018.21-.018.81 0 1.416.28 1.824.843.406.563.61 1.418.61 2.567v3.7c0 1.16-.2 2.02-.603 2.584-.4.563-1.005.844-1.814.844-.386 0-.726-.07-1.02-.2zm5.082 2.2c-1.143 0-2.22-.28-3.174-.77.862-.157 1.562-.56 2.096-1.204.705-.855 1.06-2.118 1.06-3.788V9.223c0-1.664-.356-2.926-1.07-3.788-.37-.448-.82-.774-1.348-.99.76-.283 1.58-.445 2.436-.445 1.287 0 2.49.355 3.527.964-.17.14-.334.293-.48.47-.71.863-1.063 2.125-1.063 3.79v3.014c0 1.664.357 2.925 1.072 3.784.257.31.55.562.882.76-1.123.767-2.48 1.218-3.94 1.218zm5.07-2.187c-.337-.142-.622-.358-.844-.666-.41-.568-.615-1.427-.615-2.575v-3.7c0-1.15.202-2.004.606-2.567.138-.193.31-.34.493-.467 1.402 1.28 2.29 3.118 2.29 5.162 0 1.865-.738 3.557-1.93 4.813z"/></symbol><symbol id="electro" viewBox="0 0 40 40"><path d="M20 5C11.7 5 5 11.7 5 20s6.7 15 15 15 15-6.7 15-15S28.3 5 20 5zm0 28c-7.2 0-13-5.8-13-13S12.8 7 20 7s13 5.8 13 13-5.8 13-13 13zM20 15c-2.8 0-5 2.2-5 5s2.2 5 5 5 5-2.2 5-5-2.2-5-5-5zm0 6c-.6 0-1-.4-1-1s.4-1 1-1 1 .4 1 1-.4 1-1 1zM20 10c-.6 0-1 .4-1 1s.4 1 1 1c4.4 0 8 3.6 8 8 0 .6.4 1 1 1s1-.4 1-1c0-5.5-4.5-10-10-10z"/></symbol><symbol id="enlarge" viewBox="0 0 30 30"><path d="M15 30C6.73 30 0 23.27 0 15S6.73 0 15 0s15 6.73 15 15-6.73 15-15 15zm0-28C7.832 2 2 7.832 2 15s5.832 13 13 13 13-5.832 13-13S22.168 2 15 2zM14 6h2v18h-2zM6 14h18v2H6z"/></symbol><symbol id="folk" viewBox="0 0 40 40"><path d="M15 11c-2.1 0-3 1.8-3 2.9 0 .5.4 1 1 1s1-.4 1-.9c0-.4.2-1 1-1s1 .6 1 1c0 .5.5 1 1 1 .6 0 1-.5 1-1 0-1.3-.9-3-3-3zM35.5 12.8c-.4-.5-.9-.7-1.5-.8h-.3c-2.9 0-4.8 4.2-5.4 6H22v-6c0-2.1-1.5-6-7-6-5.3 0-7.4 3.6-7.9 5.7L4.7 9.3c-.4-.3-1-.3-1.4.1-.4.4-.4 1 0 1.4l3.2 3.1-3.1 2.4c-.4.3-.5 1-.2 1.4.2.2.5.3.8.3.2 0 .4-.1.6-.2L7 16v4.2c0 .1.6 3.5 2.5 6.8 2.6 4.6 6.6 7 11.5 7 9.4 0 12.8-6.9 13.7-10.9 1-2.6 1.3-7.8 1.3-7.9.1-.3.2-1.5-.5-2.4zM27 24c-1.8 0-3.1-.5-3.9-1.4-.7-.8-1-1.9-1-2.6h10.8c0 .1.1.3.1.9v.2c-.1.6-1 2.8-6 2.9zm6.8-10h.1c.1.1.1.6.1.9 0 .7-.2 1.9-.3 3.2-.3-.1-.6-.1-.7-.1h-2.6c.9-2 2.2-4.1 3.4-4zM21 32c-4.1 0-7.4-2-9.7-5.9C9.7 23.3 9.1 20.5 9 20v-7.8c.2-.7 1.2-4.2 6-4.2s5 3.6 5 4v8c.1 1 .4 2.6 1.5 3.9 1.2 1.4 3 2.1 5.4 2.1h.1c2.2 0 3.8-.4 4.9-1-1.3 3.2-4.3 7-10.9 7z"/></symbol><symbol id="jazz" viewBox="0 0 40 40"><path d="M35.4 6.4C34.9 5.5 34 5 33 5h-2.6c-.4 0-.8.1-1.3.2-.4.1-.9.3-1.5.6-2.5 1.2-6.5 3.7-6.5 8.2H20c-.6 0-1 .4-1 1s.4 1 1 1h1v2h-2c-.6 0-1 .4-1 1s.4 1 1 1h2v3.4c0 .5-.2.8-.4 1-.3.2-.6.4-1 .4-.2 0-.6-.1-.9-.5-1.3-1.4-1.6-2.6-1.7-3.1.3-.5.5-1 .5-1.6 0-.8-.2-1.5-.8-2.1-.6-.7-1.4-1.1-2.3-1.1-.7 0-1.4.2-1.9.7l-6.9 6c-.6.5-1 1.3-1 2.1s.2 1.5.8 2.1c.6.7 1.4 1.1 2.3 1.1.3 0 .7-.1 1-.2 1.6 2 6 6.8 11.3 6.8 6.6 0 9-4.6 9-9V14c0-.3.1-3 3-3h.6c1.1 0 2.2-.6 2.8-1.6.6-1 .6-2.1 0-3zM7 26.1c-.4-.4-.3-1 0-1.4l6.9-6c.2-.1.4-.2.6-.2.3 0 .6.1.8.4.4.4.3 1 0 1.4l-6.9 6c-.2.1-.4.2-.6.2-.3 0-.6-.1-.8-.4zM27 14v12c0 2.1-.7 7-7 7-4.3 0-8.2-4.1-9.6-5.8l5-4.3c.3.8.9 1.8 1.8 2.9l.1.1c.6.7 1.5 1 2.4 1 .8 0 1.7-.3 2.3-.9.7-.6 1.1-1.5 1.1-2.4v-7.4c.5 0 1-.5 1-1s-.4-1-.9-1c0-2.8 2.2-4.7 4.2-5.8.2.6.5 1.2 1 1.8.1.1.2.2.3.2-1.3 1-1.7 2.6-1.7 3.6zm6.7-5.6c-.2.3-.5.6-1 .6H32c-.4 0-.7 0-1.1.1-1.3 0-1.7-1-1.9-1.7.3-.1.5-.2.7-.3.3 0 .6-.1.8-.1H33c.3 0 .5.1.7.4.2.4.1.8 0 1z"/></symbol><symbol id="metal" viewBox="0 0 40 40"><path d="M30.4 7c-.8-.5-1.7-.8-2.5-.8-1.2 0-2 .5-2.6.9-.5.4-.8 1-.8 1.6v2.8c-.3-.1-.6-.1-.9-.1-.8 0-1.6.3-2.1.6-.9-.6-2.1-.7-3-.4v-3c0-.5-.2-1-.5-1.3-1-1-2-1.6-3.2-1.6-1.5 0-2.7.9-3.1 1.8-.2.3-.2.6-.2.9l-.1 9.9c-1.8-1-3.1-1.1-3.7-1.1-.4 0-.8.2-1.1.4-.1.1-2.1 1.7-2 3.5.1.6.4 1.4 1.5 2 4.3 2.2 6.8 5.7 8.6 8.3 1.2 1.7 2 2.9 3.1 3.4 0 0 .1 0 .1.1.2.1.6.3 1 .3h7.6c3.1 0 4-2 4-3l.9-23.5c0-.6-.3-1.3-1-1.7zm-1.9 25.2s-.1 1.1-2 1.1H19s-.1 0-.1-.1c-.1 0-.2-.1-.3-.1-.6-.3-1.4-1.5-2.3-2.8-1.9-2.7-4.5-6.5-9.3-8.9-.2-.1-.4-.3-.4-.4 0-.5.7-1.4 1.2-1.8h.1c.4 0 1.2.1 2.5.8.3.2.7.3 1 .3 1.1 0 2-.9 2-2V8.4c.1-.2.6-.8 1.4-.8.5 0 1.1.3 1.6.8l.1 8.5c0 .6.5 1 1 1 .6 0 1-.5 1-1v-3.3c.4-.3 1.2-.6 2 0V17c0 .6.4 1 1 1s1-.4 1-1v-3.4c.4-.3 1.3-.6 2 0v3.5c0 .6.4 1 1 1s1-.4 1-1V8.6c.3-.2.8-.5 1.4-.5.5 0 1 .2 1.5.5l-.9 23.6z"/></symbol><symbol id="pop" viewBox="0 0 40 40"><path d="M24 0h-8c-2.2 0-4 1.8-4 4v14c0 2.2 1.8 4 4 4 .1.8.4 2 1.2 2.9.5.5 1.1.9 1.8 1V29c0 .6.4 1 1 1s1-.4 1-1v-3.1c.6-.2 1.1-.4 1.6-.9.9-.9 1.2-2.1 1.4-3 2.2 0 4-1.8 4-4V4c0-2.2-1.8-4-4-4zm-2.9 23.6c-.3.3-.6.4-1.1.4-.6 0-1-.2-1.4-.5-.4-.4-.6-1-.6-1.5h3.9c-.1.5-.4 1.2-.8 1.6zM24 20h-8c-1.1 0-2-.9-2-2v-1h4c.5 0 1-.4 1-1s-.4-1-1-1h-4v-1h4c.5 0 1-.4 1-1s-.4-1-1-1h-4v-1h4c.5 0 1-.4 1-1s-.4-1-1-1h-4V8h4c.5 0 1-.4 1-1s-.4-1-1-1h-4V4c0-1.1.9-2 2-2h8c1.1 0 2 .9 2 2v2h-4c-.5 0-1 .4-1 1s.4 1 1 1h4v1h-4c-.5 0-1 .4-1 1s.4 1 1 1h4v1h-4c-.5 0-1 .4-1 1s.4 1 1 1h4v1h-4c-.5 0-1 .4-1 1s.4 1 1 1h4v1c0 1.1-.9 2-2 2z"/></symbol><symbol id="rock" viewBox="0 0 40 40"><path d="M20 7c3.27.04 6.854.408 9.427 2.634 1.153 1.087 1.86 2.745 1.436 4.325-1.014 6.514-3.654 13.083-8.7 17.515-1.053.9-2.358 2.388-3.482.738-5.83-4.695-9.013-12.09-9.577-19.446.18-2.408 2.4-4.082 4.514-4.836 2.04-.724 4.23-.922 6.383-.93zm0-2c-3.78.036-7.968.512-10.853 3.213-1.597 1.506-2.39 3.82-1.904 5.977.942 7.723 4.578 15.377 10.933 20.066.55.41 1.235.81 1.897.912 2.164-.932 3.913-2.63 5.515-4.316C29.962 25.904 32.298 19.404 33 12.9c.01-3.114-2.486-5.644-5.273-6.666C25.28 5.27 22.61 5.01 20 5z"/><g><path d="M24 16.9v-2.4c-.203-.057-.227.065-.2.24v.96c-.107-.545-.55-.906-.847-1.343-1.185-1.467-3.477-1.763-5.065-.8-1.382.795-2.27 2.422-2.062 4.02.147 1.527 1.24 2.912 2.697 3.395 1.292.462 2.793.204 3.872-.64.605-.463 1.132-1.075 1.332-1.825.174-.517.275-1.06.273-1.607zm-.6-.6c.06.372-.164.94-.624.8-.306-.01-.62.02-.92-.015-.124-.064-.28-.062-.39-.12-.12-.158-.324-.306-.387-.022-.047.305-.194-.05-.304.057-.157-.015-.074.25-.127.355-.02.075-.048.467-.058.25L20.4 15.3c-.182-.29-.233.12-.245.283L19.9 17.2c-.057-.14-.065-.31-.2-.4-.146.078-.174.3-.27.442-.068.155-.283-.364-.336-.02-.032.082-.076.406-.1.33-.07-.446-.14-.895-.206-1.34-.237-.093-.21.23-.348.354L18 17.3c-.152-.092-.28-.255-.448-.3-.306-.025-.376.438-.532.645-.15-.15-.134-.834-.093-1.183.17-1.602 1.582-2.952 3.19-3.056 1.23.09 2.36.9 2.934 1.984.154.288.27.594.35.91zm-6.6 2.3c.18.296.33.632.588.887.262.265-.248-.216-.303-.334-1.032-1.395-.9-3.58.415-4.753-.845.95-1.188 2.3-.905 3.535.05.227.12.45.205.665zm3.1 2.3c-1.54.024-3.012-1.006-3.537-2.45-.552-1.407-.22-3.112.85-4.188.77-.822 1.916-1.242 3.036-1.16.148-.034.9.14.46.067-.548-.117-1.122-.087-1.67.027-1.613.347-2.878 1.856-2.935 3.507-.105 1.59.91 3.17 2.4 3.733.73.294 1.54.31 2.312.214.214-.02.833-.254.35-.024-.394.19-.832.276-1.267.274zm.2-.4c-1.278-.09-2.507-.902-3-2.1-.075-.334.098-.973.357-1.057.162.085.29.314.493.245.174-.292.367-.593.55-.888.107.52.203 1.04.316 1.558.238.165.192-.22.27-.357.035-.107.09-.347.114-.376-.003.248.26.154.235-.063.035-.143.06-.37.14-.11.08.124.126.382.312.338.067-.428.143-.86.213-1.288l.2 2.5c.184.29.232-.12.238-.284L20.7 17.4c.113.19.325.08.353-.107.053-.22.273.24.398-.044.105-.11.247.12.393.05.38-.025.785.073 1.137-.107.372-.46.215.33.213.582-.143 1.303-1.218 2.39-2.49 2.643-.198.044-.4.07-.603.082zm3.1-1.6c-.11.202-.57.686-.544.634.934-1.09 1.228-2.706.635-4.028-.128-.365-.523-.91-.653-1.068.554.676.91 1.534.96 2.412.08.6-.003 1.22-.264 1.768-.042.095-.087.19-.133.282z"/><path d="M23.8 13c.088.01.178-.02.265.006.054.016.053.083.038.127-.006.035 0 .072-.003.107v.56c-.088-.01-.178.02-.265-.006-.054-.017-.053-.083-.038-.128.006-.034 0-.07.003-.106V13z"/><path d="M23.9 12.8v.5"/><path d="M23.9 12.8c.19-.044.065.225.1.335.063.212-.168.212-.1-.002V12.8z"/><path d="M24 12.8c-.04-.182-.35-.06-.252 0H24z"/><path d="M23.7 13.7h.5v1.2h-.5v-1.2z"/><path d="M23.9 13.7c.203-.057.227.065.2.24v.96c-.203.057-.227-.065-.2-.24v-.96z"/></g></symbol><symbol id="search" viewBox="0 0 20 20"><path d="M16.7 14.3l-3.5-3.5c.5-.8.8-1.8.8-2.8 0-2.8-2.2-5-5-5S4 5.2 4 8s2.2 5 5 5c1 0 2-.3 2.8-.8l3.5 3.5c.2.2.5.3.7.3s.5-.1.7-.3c.4-.4.4-1 0-1.4zM6 8c0-1.7 1.3-3 3-3s3 1.3 3 3-1.3 3-3 3-3-1.3-3-3z"/></symbol><symbol id="secure" viewBox="0 0 30 30"><g><path d="M21 13v-2c0-3.3-2.7-6-6-6s-6 2.7-6 6v2c-1.1 0-2 .9-2 2v8c0 1.1.9 2 2 2h12c1.1 0 2-.9 2-2v-8c0-1.1-.9-2-2-2zm-10-2c0-2.2 1.8-4 4-4s4 1.8 4 4v2h-8v-2zm10 12H9v-8h12v8zM14 19.7V21c0 .6.4 1 1 1s1-.4 1-1v-1.3c.6-.3 1-1 1-1.7 0-1.1-.9-2-2-2s-2 .9-2 2c0 .7.4 1.4 1 1.7z"/></g></symbol><symbol id="star" viewBox="0 0 30 30"><path stroke-width="2" stroke-miterlimit="10" d="M20.57 23.492l-5.565-2.9-5.56 2.908 1.058-6.15L6 12.998l6.218-.9L14.996 6.5l2.785 5.592 6.22.894-4.497 4.36z"/></symbol><symbol id="star_empty" viewBox="0 0 20 20"><path d="M10 5.3l1.4 2.8.2.5.5.1 3.1.3-2.2 2.2-.4.4.1.5.5 3.1-2.8-1.4-.4-.3-.5.2-2.8 1.4.5-3.1.1-.5-.3-.3L4.8 9l3.1-.4.5-.1.2-.5L10 5.3M10 3L7.7 7.6l-5.1.7 3.7 3.6-.8 5.1 4.5-2.4 4.5 2.4-.9-5.1 3.7-3.6-5.1-.7L10 3z"/></symbol><symbol id="star_full" viewBox="0 0 20 20"><path d="M10 3l2.3 4.6 5.1.7-3.7 3.6.8 5.1-4.5-2.4L5.5 17l.8-5.1-3.7-3.6 5.1-.7z"/></symbol><symbol id="triangle" viewBox="0 0 30 30"><g><defs><path d="M0 0h30v30H0z"/></defs><path d="M17.817 1.382l-.144-.17c-.675-.645-2.127-1.176-3.36-.003-1.025.97-7.853 11.195-9.21 13.235-.307.46-.182 1.08.277 1.387.46.306 1.08.182 1.387-.277 3.082-4.63 8.23-12.223 8.922-12.895.094-.09.264-.252.54-.052C20.56 9.14 25.277 16.52 25.93 18H7c-.553 0-1 .447-1 1 0 .553.447 1 1 1h19.002c.79-.04 1.966-.61 1.966-2.027 0-.35 0-1.28-10.15-16.59"/><path d="M14.005 20.935c-1.017 0-1.848.762-1.974 1.745L1.635 27.044c-.51.213-.748.8-.534 1.31.16.382.53.61.922.61.13 0 .26-.022.387-.076l10.394-4.364c.335.254.75.41 1.202.41 1.105 0 2-.895 2-2s-.896-2-2-2"/></g></symbol><symbol id="update" viewBox="0 0 30 30"><path d="M5 15C5 9.5 9.5 5 15 5h.5l-1.2 1.2c-.4.4-.4 1 0 1.4.2.3.4.4.7.4.3 0 .5-.1.7-.3l3-3c.2-.2.3-.4.3-.7s-.1-.5-.3-.7l-3-3c-.4-.4-1-.4-1.4 0-.4.4-.4 1 0 1.4L15.6 3H15C8.4 3 3 8.4 3 15c0 3.9 1.9 7.6 5.1 9.8.2.2.4.2.6.2.3 0 .6-.1.8-.4.3-.5.2-1.1-.2-1.4C6.6 21.3 5 18.3 5 15zM27 15c0-3.9-1.9-7.5-5.1-9.8-.4-.3-1.1-.2-1.4.2-.3.5-.2 1.1.2 1.4 2.7 1.9 4.3 5 4.3 8.2 0 5.5-4.5 10-10 10h-.5l1.2-1.2c.4-.4.4-1 0-1.4s-1-.4-1.4 0l-3 3c-.2.1-.3.3-.3.6s.1.5.3.7l3 3c.2.2.4.3.7.3.3 0 .5-.1.7-.3.4-.4.4-1 0-1.4L14.4 27h.6c6.6 0 12-5.4 12-12z"/></symbol></svg>