<?xml version="1.0" encoding="utf-8"?>
<!-- Generator: Adobe Illustrator 17.0.1, SVG Export Plug-In . SVG Version: 6.00 Build 0)  -->
<!DOCTYPE svg PUBLIC "-//W3C//DTD SVG 1.1//EN" "http://www.w3.org/Graphics/SVG/1.1/DTD/svg11.dtd">
<svg version="1.1" id="Слой_1" xmlns="http://www.w3.org/2000/svg" xmlns:xlink="http://www.w3.org/1999/xlink" x="0px" y="0px"
	 width="270px" height="50px" viewBox="0 0 270 50" enable-background="new 0 0 270 50" xml:space="preserve">
<g>
	<path fill="#FFFFFF" d="M23.793,2.729c0.686-1.449,0.838-1.449,5.261-1.449v36.979c0,1.068,0,1.144-5.49,1.144V25.144
		c0-1.372,0.839-11.36,0.991-15.096c-1.448,3.355-6.176,13.419-6.556,14.258l-6.863,13.648c-0.762,1.449-0.838,1.449-5.261,1.449
		V2.424c0-1.144,0.534-1.144,5.566-1.144v17.232c0,3.202-0.686,8.768-0.915,11.513c1.373-3.278,6.024-12.961,6.482-13.953
		L23.793,2.729z"/>
	<path fill="#FFFFFF" d="M46.161,17.123c-0.832-0.468-2.235-0.936-3.692-0.936c-2.392,0-5.147,1.092-5.147,10.348
		c0,7.333,1.508,9.205,4.628,9.205c1.664,0,3.276-0.624,4.108-1.196c0.312,0.936,0.416,1.612,0.416,2.288
		c0,1.404-2.393,2.652-5.772,2.652c-4.992,0-7.801-1.976-7.801-12.949c0-12.48,5.097-14.092,9.361-14.092
		c2.443,0,4.315,0.988,4.315,2.34C46.577,15.354,46.474,16.239,46.161,17.123z"/>
	<path fill="#FFFFFF" d="M58.381,16.655v21.477c0,0.832,0.104,0.832-4.212,0.832V16.655H48.5c0-3.276,0-3.692,0.937-3.692h14.612
		c0,3.328-0.052,3.692-0.936,3.692H58.381z"/>
	<path fill="#FFFFFF" d="M73.773,12.442c5.461,0,8.112,2.808,8.112,13.365c0,9.672-3.016,13.676-8.58,13.676
		c-5.304,0-8.164-1.82-8.164-13.521C65.142,16.447,68.365,12.442,73.773,12.442z M73.41,35.895c2.235,0,3.848-1.924,3.848-10.036
		c0-8.269-1.145-9.725-3.641-9.725c-2.287,0-3.899,1.82-3.899,9.933C69.718,34.647,71.069,35.895,73.41,35.895z"/>
	<path fill="#FFFFFF" d="M100.033,38.131c0,0.832,0,0.832-4.367,0.832v-9.828c-1.769,0.676-3.276,0.988-4.732,0.988
		c-4.316,0-6.293-3.224-6.293-7.541v-8.736c0-0.884-0.155-0.884,4.213-0.884v8.996c0,3.12,0.988,4.473,3.016,4.473
		c1.248,0,2.496-0.26,3.797-0.884V13.846c0-0.884,0.052-0.884,4.367-0.884V38.131z"/>
	<path fill="#FFFFFF" d="M120.313,38.131c0,0.832,0.053,0.832-4.368,0.832V27.783h-6.968v10.349c0,0.832,0.104,0.832-4.213,0.832
		V13.846c0-0.884-0.155-0.884,4.213-0.884v11.181h6.968V13.846c0-0.884,0.052-0.884,4.368-0.884V38.131z"/>
	<path fill="#FFFFFF" d="M137.212,13.951c0.468-0.988,0.571-0.988,3.588-0.988v25.221c0,0.729,0,0.78-3.744,0.78v-9.725
		c0-0.936,0.572-7.748,0.676-10.296c-0.987,2.288-4.212,9.152-4.472,9.724l-4.681,9.308c-0.52,0.988-0.571,0.988-3.588,0.988V13.743
		c0-0.78,0.364-0.78,3.796-0.78v11.752c0,2.184-0.468,5.98-0.624,7.852c0.937-2.236,4.108-8.84,4.421-9.516L137.212,13.951z"/>
	<path fill="#FFFFFF" d="M145.532,13.743c0-0.78-0.052-0.78,4.16-0.78v11.024l6.76-10.868c0.624-0.156,2.08-0.156,2.652-0.156
		c1.353,0,1.769,0.416,1.196,1.508l-6.761,9.829c5.044,3.588,6.917,10.764,6.969,13.468c0,0.937-0.521,1.196-1.456,1.196
		c-0.937,0-1.977,0-2.809,0c-0.416-3.016-2.704-10.296-6.552-11.908v10.14c0,0.52,0,0.988-0.104,1.404
		c-0.26,0.364-1.195,0.364-4.056,0.364V13.743z"/>
</g>
<path fill="#FFFFFF" d="M180.31,24.352c3.017,0,6.501-1.196,6.501-5.253c0-1.871-1.3-2.912-3.9-2.912c-2.185,0-3.64,0.78-5.097,1.82
	c-0.52-0.779-0.987-1.82-0.987-2.443c0-1.093,1.872-3.121,6.656-3.121c4.888,0,7.488,2.133,7.488,6.293c0,4.939-4.16,6.5-5.46,6.5
	c2.756,0.052,6.292,1.456,6.292,5.876c0,5.669-3.744,8.372-8.685,8.372c-3.796,0-6.24-1.352-6.24-2.756
	c0-0.624,0.156-1.508,0.729-2.704c1.768,1.145,3.483,1.664,5.147,1.664c2.496,0,4.784-1.352,4.784-4.731
	c0-3.225-3.224-3.641-7.229-3.641V24.352z"/>
<path fill="#FFFFFF" d="M195.39,13.847c0-0.572,0.26-0.884,1.353-0.884h4.836c3.952,0,8.164,0.884,8.164,6.032
	c0,4.524-3.172,6.084-4.42,6.24c0.572,0.052,1.196,0.156,1.664,0.313c0.78,0.207,3.796,1.039,3.796,5.147
	c0,4.628-2.859,8.269-9.152,8.269h-6.24V13.847z M199.446,24.039c0.728,0.052,1.456,0.052,2.184,0.052
	c1.924,0,3.692-1.144,3.692-4.367c0-3.328-1.872-3.537-3.9-3.537c-0.936,0-1.976,0.053-1.976,0.053V24.039z M199.446,35.584
	c0.676,0,1.611,0,2.236,0c2.756,0,4.367-1.664,4.367-5.148c0-2.496-0.987-3.536-4.056-3.536c-1.092,0-1.924,0.104-2.548,0.104
	V35.584z"/>
<path fill="#FFFFFF" d="M212.758,14.106c-0.312-1.144-0.312-1.144,4.108-1.144l2.808,12.376c0.832,4.16,1.404,9.257,1.404,9.257
	s0.521-5.044,1.248-9.309l2.288-11.076c0.208-1.248,0.26-1.248,4.576-1.248l-6.396,27.405c-1.56,6.604-3.484,8.632-7.28,8.632
	c-3.12,0-4.212-0.832-4.212-2.028c0-0.779,0.208-1.819,0.624-2.392c0.676,0.468,2.08,0.78,3.276,0.78
	c1.611,0,3.016-1.301,3.796-5.564L212.758,14.106z"/>
<path fill="#FFFFFF" d="M232.466,13.743c0-0.78-0.053-0.78,4.16-0.78v11.024l6.76-10.868c0.624-0.156,2.08-0.156,2.652-0.156
	c1.352,0,1.768,0.416,1.196,1.508l-6.761,9.829c5.045,3.588,6.916,10.764,6.969,13.468c0,0.937-0.521,1.196-1.456,1.196
	c-0.937,0-1.977,0-2.809,0c-0.416-3.016-2.704-10.297-6.552-11.908v10.141c0,0.52,0,0.987-0.104,1.403
	c-0.26,0.364-1.196,0.364-4.056,0.364V13.743z"/>
<path fill="#FFFFFF" d="M265.33,21.543c0,5.98-0.052,12.221-0.312,16.173c-1.404,0.832-3.849,1.768-7.229,1.768
	c-3.796,0.053-7.437-0.779-7.437-7.904c0-7.228,3.433-8.527,6.917-8.527c1.144,0,2.756,0.155,3.796,0.676c0,0,0-2.652,0-4.108
	c0-2.444-1.145-3.068-3.225-3.068c-2.6,0-5.356,0.521-6.864,1.145c-0.468-0.832-0.572-1.769-0.572-2.393
	c0-0.571,0.156-1.144,0.572-1.456c0.885-0.572,3.952-1.404,7.904-1.404c4.473,0,6.448,1.664,6.448,6.345V21.543z M258.622,26.224
	c-2.08,0-3.848,0.728-3.848,5.252c0,3.796,1.352,4.473,3.38,4.473c1.144,0,2.288-0.416,2.756-0.885
	c0.156-1.716,0.156-5.564,0.156-8.372C260.39,26.38,259.351,26.224,258.622,26.224z"/>
</svg>
