
<svg version="1.0" id="gameboy" xmlns="http://www.w3.org/2000/svg" xmlns:xlink="http://www.w3.org/1999/xlink" x="0px" y="0px"
	 viewBox="0 0 260 400" style="enable-background:new 0 0 260 400;" xml:space="preserve">
<style type="text/css">
	.st0{fill:none;stroke:#201600;}
</style>
<path class="st0" d="M24.6,9.5c-3.5-1.4-7.6,1-9.4,4.4s-1.8,7.3-1.8,11.1c0,47.1-0.1,94.2-0.1,141.4c0,65.4-0.1,130.8-0.1,196.2
	c0,9.6,1.1,21.1,9.6,25.5c3.6,1.8,7.8,1.9,11.9,2c29.6,0.3,59.3,0,88.9-0.2c14.3-0.1,28.5-0.2,42.8-0.3c22.6-0.2,48-1.5,63.4-18.2
	c14.1-15.3,14.8-38.3,14.7-59.2c-0.6-96.2-1.2-192.4-1.9-288.6c0-4.2-0.3-9-3.6-11.6c-2.3-1.8-5.5-2.1-8.4-2.2
	C160.2,6,89.8,5.6,19.6,8.6"/>
<path class="st0" d="M15.3,28.2c23.3,0.7,46.6,1.4,69.9,2.1c7.9,0.2,15.8,0.5,23.6,0.3c12.2-0.2,24.4-1.3,36.6-1.9
	c32-1.6,64,0.2,96,1.9"/>
<path class="st0" d="M225.7,11.2c-0.1,1-0.1,1.9-0.2,2.9c-0.1,2.1-0.3,4.2-0.3,6.3c-0.1,4.3,0.3,8.6,1.2,12.9"/>
<path class="st0" d="M34,9.1c-0.8,0.5-1,1.5-1,2.5c-0.4,6.6-0.4,13.3,0,19.9"/>
<path class="st0" d="M227.4,45.2c-0.3,35.1-0.6,70.2-1,105.3c-0.1,7.4-0.2,15.1-3.6,21.6c-4.9,9.6-15.9,14.9-26.7,16.3
	c-10.7,1.4-21.6-0.2-32.4-0.7c-7.5-0.3-14.9-0.1-22.4,0.1c-33.2,0.9-66.4,0.6-99.5-0.8c-1.6-0.1-3.3-0.2-4.8-0.8
	c-4.4-2-5.1-7.8-5.2-12.6c-0.7-39.6-0.3-79.3,1.1-118.9c0.1-3.1,0.3-6.4,1.8-9.2c3.5-6.3,12.2-7,19.5-6.9c55.7,1,111.4,2,167.1,2.9
	c3.5,0.1,8.4,1.6,7.7,5.1"/>
<path class="st0" d="M166.1,352.1c4.4,7.5,8.8,15,13.2,22.6c0.8,1.3,1.6,2.7,1.5,4.2c-0.1,1.5-1.4,3.1-2.8,2.8c-1-0.2-1.6-1-2.2-1.7
	c-6.8-8.8-12-18.7-15.4-29.3c-0.3-1-0.2-2.5,0.8-2.5c0.3,0,0.6,0.2,0.8,0.3c2.1,1.4,3.7,3.5,4.5,5.9"/>
<path class="st0" d="M172.5,345.6c4.6,9,9.1,18,13.7,27c1,1.9,2.2,4,4.3,4.5c0.4,0.1,0.8,0.1,1.2-0.1c1-0.5,0.8-1.9,0.5-2.9
	c-1.6-4.6-4.7-8.5-7-12.8c-4-7.7-5.7-17.3-12.8-22.4c-0.9,2.7-0.3,5.9,1.4,8.2"/>
<path class="st0" d="M197.8,365.7c-4.3-7.5-8.5-15-12.7-22.5c-1.3-2.3-2.5-5.4-0.6-7.2c2.2,1.5,3.7,3.8,5.2,6
	c3.8,5.5,7.5,11,10.5,17c1.4,2.8,2.7,6.1,1.7,9.1c-0.2,0.5-0.4,1-0.9,1.1c-0.6,0.2-1.2-0.5-1.6-1c-0.8-1.1-1.5-2.2-2.3-3.3"/>
<path class="st0" d="M203.7,350.4c-4.7-6.3-8.1-13.6-9.9-21.2c2.8,1.2,4.7,4,6.3,6.6c4.7,7.8,8.8,15.9,12.3,24.3
	c0.2,0.6,0.5,1.3,0.1,1.9c-0.7,0.9-2.2-0.2-2.8-1.2c-2.2-3.9-4.5-7.8-6.7-11.7"/>
<path class="st0" d="M217.1,349c-2.9-5.7-5.8-11.3-8.7-17c-1.1-2.2-2.3-4.4-2.5-6.9c-0.1-0.5-0.1-1.1,0.3-1.5
	c0.8-0.8,2.1,0.2,2.8,1.2c4.9,7.4,9.1,15.3,12.5,23.5c1,2.5,2,5,2,7.7c-2.8-3.1-5.3-6.5-7.3-10.1"/>
<path class="st0" d="M232.6,348.3c-5.2-9.7-10.4-19.4-15.6-29.2c-0.6-1-1.1-2.2-1-3.3c1-0.1,1.7,0.9,2.3,1.7
	c5.7,8.8,10.8,18.1,15.1,27.7c0.6,1.3,1,3,0,3.9c-0.5-0.4-1.1-0.8-1.6-1.2"/>
<path class="st0" d="M201.5,256.4c0.1-3.8,0.3-7.8,2.5-10.9c3.4-4.8,10.3-5.6,16-4.1c1.3,0.3,2.6,0.8,3.8,1.5
	c3.1,1.9,4.9,5.6,5.1,9.3c0.2,3.7-1.1,7.3-2.9,10.5c-1.3,2.3-3.1,4.6-5.5,5.6c-3.2,1.3-6.9,0.2-10.2-1c-1.6-0.6-3.3-1.2-4.6-2.4
	c-2.2-2-2.9-5.1-2.7-8.1c0.3-2.9,1.4-5.7,2.6-8.4"/>
<path class="st0" d="M165.8,276.1c-2.3-5.4-0.2-12.4,4.8-15.6c2.3-1.4,5-2.1,7.6-2.5c1.9-0.3,3.8-0.4,5.6,0.1
	c2.1,0.7,3.8,2.2,5.1,4.1c3.3,4.6,4.1,11,1.7,16.1c-2.4,5.1-8.1,8.6-13.8,8.1c-6.5-0.6-12-6.8-11.9-13.3c0.1-3,1.2-5.9,2.4-8.7"/>
<path class="st0" d="M184.2,293.6c1.8,2.1,3.2,4.5,4.3,7.1c-1.5-1.6-3-3.4-3.1-5.5c-0.1-2.2,2.4-4.4,4.2-3.2c0.4,1.3,0,2.7-0.9,3.7
	c1.3-0.7,2.8-1.5,4.2-1.2c1.5,0.3,2.6,2.2,1.6,3.3c-0.3,0.4-0.8,0.6-1.3,0.8c-1.3,0.5-2.6,1.1-3.9,1.6"/>
<path class="st0" d="M225.2,280.8c0.2,0.2-0.2,0.5-0.4,0.3c-0.2-0.2-0.2-0.5-0.2-0.8c0-1.2-0.4-2.3-0.6-3.4c-0.2-1.1,0-2.5,1-3.1
	c1.1-0.7,2.6-0.1,3.4,0.9c0.8,1,1,2.3,1.2,3.6"/>
<path class="st0" d="M224.1,278.5c0.2,0.1-0.2,0.3-0.3,0.1c-0.1-0.2,0.1-0.4,0.3-0.5c1.9-1.5,3.7-3,5.6-4.4"/>
<path class="st0" d="M69.4,57.9c-0.8,37.7-0.7,75.4,0.2,113.1"/>
<path class="st0" d="M69.5,170.4c41.4,0.2,82.7,0.4,124.1,0.6"/>
<path class="st0" d="M192.6,170.6c-1.5-38.4-1.7-76.9-0.4-115.3"/>
<path class="st0" d="M70.4,57.3c40.9-1.6,81.9-1,122.8,1.9"/>
<path class="st0" d="M51.7,242.1c0.7,5.9,1.4,11.8,2.1,17.7c-6.5-1.2-13.2-1.6-19.8-1.4c1.5,6.6,2.1,13.4,1.6,20.2
	c4.7-0.7,9.4-1.4,14.1-2.1c0.9-0.1,1.9-0.3,2.7,0.3c1.2,0.8,1.1,2.4,1,3.8c-0.5,4.8-0.8,9.6-0.8,14.5c0,0.8,0.1,1.7,0.7,2.1
	c0.6,0.4,1.4,0.3,2.1,0.2c6-1.1,12.1-2.2,18.1-3.3c-0.1-5.1-0.3-10.3-0.4-15.4c6.3,0.2,12.7-0.6,18.9-2.2c0.3-6.1-0.1-12.2-1.3-18.2
	c-4.9,0-9.9,0-14.8-0.1c-0.6,0-1.3,0-1.8-0.5c-0.5-0.5-0.5-1.2-0.5-1.9c0.1-4.4,0.1-8.8,0-13.2c0-0.9-0.1-1.8-0.5-2.6
	c-1-1.6-3.2-1.6-5.1-1.4c-5.6,0.5-11.1,1.1-16.7,1.6"/>
<path class="st0" d="M87.9,327.1c5.9-5.7,13.6-9.5,21.7-10.6c0.6-0.1,1.2-0.1,1.8,0.1c1.4,0.7,0.9,2.9-0.1,4.3
	c-4.5,6.2-12.3,8.8-19.5,11.1c-1.5,0.5-3.3,0.8-4.4-0.2c-0.8-0.8-0.9-2.1-0.5-3.1s1.2-1.9,2-2.7"/>
<path class="st0" d="M126.8,325.8c3.3-2.3,6.8-4.3,10.4-6c3.6-1.7,7.4-3.2,11.3-3.2c0.7,0,1.4,0,1.9,0.4c0.9,0.6,1,2.1,0.4,3
	c-0.5,1-1.5,1.6-2.5,2.2c-5.5,3.4-11.2,6.5-17.3,8.8c-1.2,0.4-2.4,0.9-3.6,0.7c-1.2-0.2-2.4-1.1-2.4-2.4c0-0.9,0.6-1.7,1.2-2.4
	c1-1.3,2-2.5,3.1-3.8"/>
<path class="st0" d="M47.2,95.6c0-0.5,0.9-0.6,1-0.1c0.4,0.5,0.3,1.3-0.2,1.7c-0.5,0.4-1.3,0.3-1.7-0.3c-0.1-0.2-0.2-0.4-0.2-0.6
	c-0.2-1.2,1.1-2.2,2.3-1.9c1.1,0.3,1.8,1.6,1.5,2.8c-0.3,1.1-1.5,1.9-2.6,2c-1.5,0.1-2.9-1-3.2-2.4c-0.4-1.4,0.4-3,1.7-3.7
	c1.4-0.7,3-0.3,4.4,0.2c0.6,0.2,1.1,0.4,1.5,0.9c0.8,1.1-0.3,2.6-1.4,3.4c-1.4,1-3,1.8-4.7,2.3"/>
<path class="st0" d="M56.9,269.2c0.5-2.8,2.7-5.3,5.5-5.7c2.8-0.4,5.9,1.8,5.9,4.6c0.1,3-2.8,5.2-5.6,6.3c-1.7,0.7-3.8,1-5.2-0.2
	c-1.8-1.6-0.8-4.5,0.2-6.6c0.7-1.3,1.4-2.7,2.6-3.5s3.1-0.8,4,0.4"/>
</svg>
