<svg version="1.0" id="Layer_1" xmlns="http://www.w3.org/2000/svg" xmlns:xlink="http://www.w3.org/1999/xlink" x="0px" y="0px"
	 viewBox="0 0 200 200" style="enable-background:new 0 0 200 200;" xml:space="preserve">
	<path class="st0" d="M17.1,146.7c11.9-19,22.4-38.9,32.9-58.7c1.8-3.3,3.5-6.6,5.1-10.1c1.6-3.5,2.9-7,4.6-10.5
		c2.8-5.9,6.4-11.4,10-16.9"/>
	<path class="st0" d="M130.5,144.5c8-14.2,15.8-25.3,23.9-38.5c3.2-5.1,6-10.5,8.8-15.8c7.3-13.7,14.6-27.4,21.4-41.5"/>
	<path class="st0" d="M69.5,50.5c5.5,0.2,10.7,0.1,14.6,0.2c33.4,0.8,66.4-0.2,100.4-1.8"/>
	<path class="st0" d="M17.5,146.5c36.8-1.4,75.7-2,112.5-1.3"/>
	<path class="st0" d="M54.2,89.8c0.2,17.4,0.2,34.8,0,52.2"/>
	<path class="st0" d="M58.5,121.5c0.4-4,1.7-7.6,4-11c2-3,6.3-5.1,10.4-5.7s8.4,0.9,10.9,4c1.8,2.3,3.1,4.8,3.7,7.6
		c0.8,3.6,1.1,7.7,0.6,11.4s-2.2,7.4-5.2,9.5c-2.3,1.6-5.2,2.2-8,2.4c-2.5,0.1-5-0.1-7.3-1.1c-3.2-1.4-5.5-4.2-7-7.3
		c-1.4-3.1-1.9-6.6-2.1-10"/>
	<path class="st0" d="M131.8,114.2c-0.5-2.3-2.4-4-4.3-5.3c-3.5-2.4-7.8-3.9-12-3.8c-4.3,0.1-8.6,2-11.2,5.4c-2.9,3.8-3.4,8.9-3,13.6
		c0.3,3.4,1,6.7,2.5,9.7s4,5.6,7.1,6.9c2.8,1.2,5.9,1.2,8.9,0.9c1.7-0.2,3.4-0.6,4.9-1.3c3.3-1.7,5.2-5.3,7-8.6"/>
</svg>
