<svg version="1.0" id="Layer_1" xmlns="http://www.w3.org/2000/svg" xmlns:xlink="http://www.w3.org/1999/xlink" x="0px" y="0px"
	 viewBox="0 0 200 200" style="enable-background:new 0 0 200 200;" xml:space="preserve">
	<path class="st0" d="M65.9,119.5c-1,11.3,3.6,22.4,9.9,31.7c1.9,2.8,3.9,5.5,5.8,8.4c6.4,9.8,10.6,21.1,12.1,32.7"/>
	<path class="st0" d="M93.8,192.3c2-8.6,4-17.2,6-25.8"/>
	<path class="st0" d="M99.2,167.1c2.3,8.6,4.4,17.3,6.3,26c0.1-6.9,2.8-13.4,5.6-19.8c2.1-4.8,4.1-9.6,6.8-14.1
		c2.5-4.2,5.5-8,7.9-12.3c4.6-8.3,6.5-18,5.5-27.4"/>
	<path class="st0" d="M132.7,111.2c2.8-4,7.2-6.6,11.5-9c-1,5.4-1.9,10.8-2.7,16.2c-0.1,0.5-0.2,1-0.5,1.3c-0.4,0.5-1.1,0.5-1.8,0.6
		c-2.3,0.1-4.5,0.2-6.8,0.4"/>
	<path class="st0" d="M65.1,111.3c-2-4.5-6.4-7.9-11.3-8.6c-0.2,0.3-0.1,0.7,0,1.1c1.1,3.2,2.4,6.3,2.6,9.7c0.1,1.2,0.1,2.3,0.4,3.4
		s1.3,2.1,2.4,2.2c1.3,0.1,2.4-0.9,3.7-0.9"/>
	<path class="st0" d="M59.3,120.5c-1.3,2.1-2,4.5-1.9,7c0,1.1,0.2,2.2,1,2.9c0.6,0.5,1.5,0.6,2.4,0.6c1.8-0.2,3.5-1.1,4.5-2.6"/>
	<path class="st0" d="M139.2,121.8c-0.1-0.1,0.2-0.2,0.4-0.1c1,0.7,1.8,1.7,2.2,2.9c0.2,0.5,0.3,1.1,0.3,1.7
		c-0.2,1.4-1.5,2.4-2.7,3.1c-1.1,0.7-2.3,1.5-3.6,1.3c-1.3-0.1-2.3-1-3.2-1.9"/>
	<path class="st0" d="M54.2,109.6c-1.2-0.3-2.5-0.6-3.7-0.8c-0.2,0-0.4-0.1-0.5,0.1c-0.1,0.1-0.1,0.3,0,0.4c0.2,1.2,0.8,2.2,1.2,3.4
		c0.7,2.5,0,5.5,1.5,7.6c1.1,1.4,2.9,2.1,4.6,2.6"/>
	<path class="st0" d="M50.5,113.2c-2.2,0.1-4.4-0.2-6.5-0.8c1.1,2,2,4.1,3,6.2c0.8,2,1.7,4.1,3.6,5.2c1,0.5,2.1,0.7,3.2,0.9
		c0.9,0.2,1.9,0.3,2.8,0.5"/>
	<path class="st0" d="M144.1,110.2c1.1-0.2,2.1-0.3,3.2-0.5c-0.3,2.3-0.7,4.6-1.1,6.9c-0.3,1.5-0.6,3.1-1.2,4.5
		c-0.6,1.4-1.7,2.7-3.1,3.4"/>
	<path class="st0" d="M148.2,112.8c1.7-0.7,3.5-1.3,5.2-2c-0.1,2.6-0.3,5.3-1.7,7.5c-0.6,1-1.5,1.8-2.4,2.5c-2.3,1.9-4.9,3.5-7.6,4.7
		"/>
	<path class="st0" d="M51.8,125.9c-3.1,10.4-5.3,21-6.6,31.8c-0.7,5.6-1.1,11.2-1.5,16.8c-0.6,7.7-1.1,15.4-1.7,23.1"/>
	<path class="st0" d="M91.2,186.2c-1.3,4.7-2.9,9.3-4.6,13.8"/>
	<path class="st0" d="M43,175.5c-2.3,2.3-4.5,4.5-6.8,6.8c-1.1,1.1-2.1,2.1-3,3.3c-3,4.2-3.3,9.6-3.5,14.7"/>
	<path class="st0" d="M108.8,185.7c-0.3,0-0.5,0.2-0.6,0.5c-0.1,0.3,0,0.6,0,0.8c0.9,5.3,2.6,10.7,6.5,14.3"/>
	<path class="st0" d="M145.1,124.5c1.7,2.8,2.5,5.9,3.2,9.1c1.4,5.5,2.7,11,4.1,16.5c1.4,5.5,2.7,11,3.7,16.6c1.6,9.8,2,19.7,1,29.6"
		/>
	<path class="st0" d="M86,136.8c1.2-3.4,0.5-7.5-1.7-10.3c-2.9-3.8-7.9-5.2-12.6-6.1c0.7,8.2,7.1,15.7,15.1,17.7"/>
	<path class="st0" d="M112.7,137c-1.4-5.1,1.2-11.1,5.9-13.6c1.9-1,4.1-1.5,5.5-3.1c1,2,0.9,4.4,0.2,6.5c-0.7,2.1-2.1,3.9-3.6,5.6
		c-2,2.2-4.5,4.3-7.4,4.6"/>
	<path class="st0" d="M66,109.2c2.3,1.6,5.4,1.6,8.2,1.2c2.5-0.3,4.9-0.7,7.2-1.6c1.3-0.5,2.6-1.2,3.4-2.4c0.9-1.2,1.1-2.8,1.3-4.3
		c0.6-4.8,1-10.2-1.8-14.1c-0.8-1.2-2-2.2-2.2-3.6c-0.1-0.8,0.1-1.6,0-2.4c-0.1-0.5-0.3-1-0.3-1.6c0-1.4,1.4-2.2,2.4-3.1
		c2.1-2,2.3-5.8,0.3-8c0.3,1.9-0.3,3.8-1.5,5.2c-0.2-1.7-1.8-2.8-3.3-3.6c-2.2-1-4.6-1.6-7-1.6c1.7,0.7,3.3,2,3.9,3.8s-0.1,4-1.8,4.8
		"/>
	<path class="st0" d="M56.9,101.9c0.4-0.4-0.1-1.1-0.6-1.4c-2.9-1.9-6.8-2.2-9.2-4.7c-1-1.1-1.7-2.4-2.1-3.9c-1-3.4-0.8-7-0.8-10.5
		s-0.5-7.2-2.6-10"/>
	<path class="st0" d="M43,71.8c1.5,2.4,2.6,5,3.2,7.8c0.3,1.3,0.5,2.6,1,3.9c1.2,3.3,3.9,6.1,7.2,7.3"/>
	<path class="st0" d="M73.7,76.6c-0.9-0.9-1.8-1.9-2.8-2.8c-1.7-1.8-3.5-3.6-4.7-5.9c-2.6-4.8-2.1-10.6-1.6-16c0.1-1.3,0.3-2.7,0.6-4
		c0.7-2.6,2.2-5,2.1-7.7"/>
	<path class="st0" d="M51.7,86.7c-2.2-3.5-3.4-7.6-3.4-11.8c0-4,1.1-8.2,0-12.1"/>
	<path class="st0" d="M51.6,62.3c-0.5,0.1-1,0-1.5-0.1c-2.2-0.7-4.6-1.5-5.9-3.4c-0.6-1-0.9-2.1-1.4-3.2c-0.6-1.3-1.4-2.5-2.3-3.7
		c-0.6-0.8-1.1-1.6-1.7-2.3c2.8,2.8,5.9,5.3,9.2,7.4"/>
	<path class="st0" d="M49.9,57c-1.6-3.3-1-7.3,0.5-10.6s3.9-6.1,6.1-9.1c1.1-1.5,2.1-3.1,2.1-4.9c0-3.3-3.3-5.5-4.6-8.5"/>
	<path class="st0" d="M54.6,22c1.9,1.1,3.8,2.1,5.8,2.9c1.8,0.7,3.7,1.3,4.8,2.8c1.2,1.6,1.2,3.9,1.1,5.9"/>
	<path class="st0" d="M62.9,38.3c0.8-0.5,1.6-0.9,2.5-1.4c0.6-0.4,1.2-0.7,1.7-1.3c0.6-0.7,1-1.6,1.2-2.6c0.4-1.8,0.6-3.6,0.4-5.4
		c1.2,1.8,2.4,3.8,2.2,6c-0.2,2.1-1.6,3.9-3,5.5"/>
	<path class="st0" d="M133.5,108.1c-0.8,0.6-1.6,1.3-2.5,1.8c-2.3,1.3-5,1.5-7.6,1.4c-2-0.1-4.1-0.4-5.9-1.3
		c-1.4-0.7-2.6-1.8-3.8-2.9c-1.1-1.2-2.2-2.4-3-3.9c-1.9-3.6-1.5-8.1,0.5-11.6c1.2-2.1,3-3.8,4.2-5.9c1.2-2.1,1.7-4.9,0.4-6.9
		c-0.7-1-1.8-1.7-2.8-2.5c-1-0.8-1.9-1.8-2-3.1c-0.1-1.6,1.3-3.4,0.5-4.8"/>
	<path class="st0" d="M111.9,67.7c0,2.4,1.7,4.8,4,5.6"/>
	<path class="st0" d="M115.8,74.5c-0.2-1,0.5-2,1.2-2.7c0.5-0.6,1.1-1.1,1.8-1.4c0.6-0.2,1.3-0.1,2-0.1c2.4,0,4.7-1.4,5.8-3.5"/>
	<path class="st0" d="M126.5,67.6c-1.5,1.6-3.1,3.2-4.6,4.8c-0.3,0.3-0.6,0.6-0.8,1c-0.3,0.7-0.1,1.4,0.1,2.1
		c0.2,0.7,0.5,1.5,0.9,2.1"/>
	<path class="st0" d="M135.5,106c2-3.9,6.2-6.2,10.5-7.2c1.8-0.4,3.7-0.7,5.1-1.8c1.3-1,1.9-2.6,2.5-4.1c2.8-7.7,3.1-16.1,1.1-24
		c-0.2,6.8-2.8,13.6-7.4,18.7c-1.3,1.5-2.9,2.8-4.8,3.2"/>
	<path class="st0" d="M146.6,85.6c2.9-7.2,4.3-15.1,4-22.9"/>
	<path class="st0" d="M145.5,63.5c1,0,1.4,1.3,2,1s1.4-1,2-1c2.5,0.1,5.1-2.9,6-5s-0.5-5.2-1-7.5c-1.3,4.1-4,7.8-7.7,10"/>
	<path class="st0" d="M123.2,77.8c7.6-4.6,12.1-13.8,11.2-22.6c-0.5-5-2.6-9.8-4.6-14.4"/>
	<path class="st0" d="M135.3,41.7c-0.3-0.8-1.1-1.3-1.9-1.6c-0.8-0.3-1.7-0.4-2.5-0.6c-1.5-0.3-2.8-1-4-1.9c-0.6-0.5-1.2-1-1.6-1.7
		c-0.6-1.1-0.7-2.4-0.5-3.6c0.2-1.2,0.7-2.4,1.2-3.5c0.4,1.9,1,3.9,2.4,5.3c1.4,1.4,3.4,2.1,5.3,2.7c1.1,0.3,2.3,0.9,2.5,2"/>
	<path class="st0" d="M150.5,58.5c0.9-5.5-2.4-12.9-6-17.1c-1.8-2.1-4.3-4.2-4.2-7c0-1.1,0.5-2.1,0.9-3c1.2-2.8,2.5-5.5,3.8-8.2"/>
	<path class="st0" d="M131.1,33.3c1-2.7,3-5,5.5-6.5c3.3-1.8,7.3-2.2,10.3-4.5"/>
	<path class="st0" d="M115.2,84.2c-10.5-3.7-22.5-3.2-32.6,1.4"/>
	<path class="st0" d="M158.4,178.6c7.8,5.9,13.4,14.8,15.4,24.4"/>
	<path class="st0" d="M157.3,194.5c-0.4,2.1-0.8,4.2-1.2,6.3"/>
	<path class="st0" d="M73.3,158c-2.1,3.1-1.3,7.3,0.2,10.7c1.5,3.4,3.8,6.6,4.3,10.3c0.5,3.4-0.5,6.8-1.7,10
		c-1.7,4.4-3.7,8.5-5.8,12.7"/>
	<path class="st0" d="M68.1,148.5c0,3.9-1.3,7.7-3.7,10.8"/>
	<path class="st0" d="M62.3,149c-4.8,5.6-5.6,14.2-2,20.6c1.5,2.7,3.8,5.2,4.3,8.3"/>
	<path class="st0" d="M57.1,175.7c0.3,3.8,3.9,6.5,5.3,10.2c1.3,3.5,0.4,7.4-0.6,11"/>
	<path class="st0" d="M50.7,177.5c2.3,5.7,2.8,12.2,1.5,18.2"/>
	<path class="st0" d="M127.4,148c-0.4,3.2,0.7,6.6,2.9,8.9"/>
	<path class="st0" d="M123.8,158.7c1.2,3.7,1.2,7.7-0.1,11.4c-0.7,2-1.8,3.8-2.5,5.8c-1.7,4.7-1.1,10,0.5,14.7
		c1.6,4.7,4.2,9.1,6.8,13.3"/>
	<path class="st0" d="M127.4,173.4c-0.6,3.3-0.2,6.8,1.1,9.9c1.5,3.3,4,6,5.9,9.1s3.3,6.8,2.3,10.3"/>
	<path class="st0" d="M145.2,177c-2.3,2.6-2.8,6.7-1.2,9.8c0.6,1.2,1.6,2.3,1.9,3.7c0.4,1.5,0.1,3-0.3,4.5c-0.2,1.1-0.5,2.1-0.7,3.2"
		/>
</svg>
