<svg version="1.0" id="Layer_1" xmlns="http://www.w3.org/2000/svg" xmlns:xlink="http://www.w3.org/1999/xlink" x="0px" y="0px"
	 viewBox="0 0 200 200" style="enable-background:new 0 0 200 200;" xml:space="preserve">
	<path class="st0" d="M88.2,51.2c-2.1,4.3-1.1,7.5-1.1,12.2c-0.5,26.3-1.5,52.7-0.2,79c0.1,1.3-1.1,6.2,0,6.8c2.7,1.4,7.2,0.5,9.5,0
		c6.7-1.3,13.2,0.6,20,0c4.6-0.4,9.5,1.8,14.1,1.3c14-1.5,28.9,1.5,42.2-2.7c1.5-0.5,2.9-2,4.2-2.8c1.5-1,4.3-2.5,5.3-4
		c2.7-4.1,5.1-5.8,6.8-9.5c3.6-7.6,2-15.4-1.4-23.1c-1.6-3.6-3.8-7-6.8-9.5c-2-1.7-4.4-3-6.8-4.1c-7.6-3.4-15.2-3.5-23.2-1.1
		c-0.8-7.2-3.3-14.3-6.7-20.7c-1.3-2.5-2.2-4.7-4.1-6.8c-2.1-2.3-5.5-6.6-8.2-8.2c-9.7-5.7-9.5-6.8-24.5-9.5c-2-0.4-11.7-1-13.8-0.7
		S89,49.2,88.2,51.2"/>
	<path class="st0" d="M78.2,147.9c3.3-10.1,2.2-21,1.6-31.5c-0.8-13.5-1-27.1-0.5-40.6c0.3-6.9-0.6-12.4-0.6-20.6
		c0-1.6-1.4-3.3-2.8-4.2c-1.8-1.2-4.5-0.5-6,1c-1.5,1.6-2.8,3.8-2.7,6c0.6,13.5,1.4,24.5,1.1,36.9c-0.5,16.1-0.5,31.1-0.5,46.1
		c0,2.2-1.1,4.9,0,6.8c1.1,1.9,9.3,1.5,10.9,0"/>
	<path class="st0" d="M59.4,146.1c0.7-13.8,0.7-27.7,0.1-41.5c-0.2-5.2,1.8-10.5,0.1-15.4c-0.5-1.3-3.4-2.6-4.7-3.3
		c-1.8-0.9-4,0.2-5.1,1.9c-1.1,1.7-1.4,3.7-1.4,5.7c0.6,18.7-3.2,40.4,0.2,54.2c0.4,1.5,5.4,0.6,6.8,1.4c1.4,0.7,4.1-1.1,4.1-2.7"/>
	<path class="st0" d="M40.5,139.7c0.2-13.2-0.2-23.5,0-36.8c0.1-7.3,2-14.8,0-21.8c-0.5-1.6-4.4-3.9-6-3.7c-0.9,0.1-4.4,1.6-4.9,2.3
		c-1.4,2.3-1.6,5.5-1.4,8.2c1.4,19.1-1.4,36.8,0,54.5c0.1,1.2,1.9,3.2,2.7,4.1c0.8,0.9,7.2-0.7,8.2-1.4
		C40.8,144.1,40.5,141,40.5,139.7"/>
	<path class="st0" d="M19.9,135.9c1.4-10.2,2.9-16,1.5-26.2c-0.2-1.2,0-6.8-2.3-8.1c-1.1-0.6-1.7-1.9-2.9-1.9c-1.1,0-5,1-5.7,1.8
		c-2.6,3-1.2,7-1.4,10.9c-0.1,3.3,0.1,6.3,0,9.5c-0.2,4.4-0.2,11.6,2.7,15c0.8,0.9,2.9,1.5,4.1,1.4c0.6,0,2.4-0.8,2.7-1.4
		c2.7-4.1,2-2.7,2.7-4.1"/>
</svg>
