<?xml version="1.0" encoding="utf-8"?>
<!-- Generator: Adobe Illustrator 23.0.6, SVG Export Plug-In . SVG Version: 6.00 Build 0)  -->
<svg version="1.1" id="Слой_2" xmlns="http://www.w3.org/2000/svg" xmlns:xlink="http://www.w3.org/1999/xlink" x="0px" y="0px"
	 viewBox="0 0 223 223.6" style="enable-background:new 0 0 223 223.6;" xml:space="preserve">
<g>
	<g>
		<path d="M43,182.16c-16.16-16.33-27.08-38.37-29.17-61.34c-1.05-11.56,0.54-22.99,3.94-34.06c3.36-10.94,8.05-21.47,14.28-31.09
			c6.31-9.75,14.18-18.45,23.52-25.37c8.63-6.39,18.37-11.27,28.62-14.46c20.46-6.37,43.18-5.96,63.2,1.83
			c19.87,7.72,36.6,22.52,47.63,40.66c5.5,9.04,9.62,18.93,12.03,29.23c2.72,11.61,2.86,23.32,1.65,35.14
			c-0.72,7.02-1.4,14.15-2.85,21.06c-1.28,6.08-3.56,11.75-6.99,16.93c-5.06,7.66-11.08,14.94-17.61,21.37
			c-14.33,14.09-33.14,24.09-52.76,28.45c-1.19,0.26-2.39,0.51-3.59,0.73c-0.47,0.08-0.93,0.16-1.4,0.24
			c-0.18,0.03-0.35,0.06-0.53,0.08c-0.33,0.05,0.23-0.03,0.03,0c-0.1,0.01-0.2,0.03-0.3,0.04c-2.73,0.37-5.48,0.51-8.23,0.56
			c-10.75,0.18-21.48-1.67-31.62-5.23c-13.61-4.77-26.39-12.43-37.07-22.12C44.83,183.95,43.9,183.07,43,182.16
			c-0.49-0.49-3.1,0.59-2.74,0.96c8.28,8.33,18.38,15.11,28.92,20.21c9.09,4.41,18.83,7.54,28.84,9c7.82,1.14,16,1.43,23.84,0.28
			c16.51-2.43,32.79-9.14,46.61-18.39c9.95-6.65,18.46-14.89,25.95-24.19c2.48-3.08,4.88-6.26,7.08-9.54
			c3.63-5.41,6-11.33,7.3-17.71c1.37-6.69,2.05-13.57,2.76-20.35c0.7-6.69,1.11-13.42,0.69-20.14c-0.68-10.86-3.32-21.57-7.57-31.57
			c-8.46-19.88-23.31-37.15-42.05-47.98c-19.04-11-41.57-14.46-63.2-11.18C77.8,14.82,56.89,24.7,41.61,40.52
			c-8.67,8.98-15.57,19.56-20.72,30.91c-4.68,10.31-8.28,21.44-9.7,32.69c-2.93,23.2,4.73,47.11,18.12,65.97
			c3.29,4.63,6.95,8.98,10.94,13.01C40.75,183.61,43.36,182.53,43,182.16z"/>
	</g>
</g>
<g>
	<path d="M47.11,82.91c-1.75-3.67,0.34-8.25,3.65-10.6c3.31-2.35,7.51-3,11.54-3.48c32.52-3.9,66.08-1.41,96.91,9.67
		c6.82,2.45,13.62,5.39,19.05,10.19c2.3,2.03,4.44,5.3,2.89,7.95c-1.39,2.37-4.76,2.47-7.47,2c-6.97-1.21-13.5-4.18-20.1-6.74
		c-26.26-10.2-54.9-14.22-82.95-11.66c-4.7,0.43-9.44,1.05-13.88,2.66c-3.79,1.37-7.95,3.46-11.62,1.78"/>
	<g>
		<path d="M48.56,82.52c-1.64-3.71,0.45-7.86,3.71-9.89c3.84-2.39,8.75-2.62,13.12-3.09c9.57-1.02,19.2-1.49,28.83-1.34
			c19.26,0.3,38.55,3.11,56.95,8.86c8.57,2.68,17.58,5.68,24.68,11.37c1.68,1.35,3.45,2.96,4.13,5.09c0.58,1.82-0.06,3.62-2.01,4.09
			c-1.82,0.43-3.81-0.02-5.59-0.41c-2.44-0.53-4.82-1.28-7.17-2.12c-4.5-1.59-8.89-3.51-13.37-5.17c-4.55-1.69-9.16-3.19-13.83-4.5
			c-9.22-2.6-18.64-4.5-28.15-5.66c-9.6-1.17-19.29-1.58-28.95-1.24c-4.8,0.17-9.61,0.47-14.37,1.1c-2.47,0.33-4.94,0.76-7.34,1.41
			c-2.27,0.62-4.43,1.56-6.65,2.32c-2.17,0.74-4.37,1.26-6.57,0.34c-1.25-0.52-3.37,1.28-1.66,1.99c4.72,1.98,9.4-0.71,13.85-2.14
			c5.03-1.62,10.35-2.09,15.59-2.48c10.24-0.75,20.54-0.62,30.76,0.37c10.3,1,20.53,2.87,30.51,5.6c4.97,1.36,9.89,2.94,14.73,4.72
			c4.77,1.76,9.43,3.81,14.24,5.49c2.43,0.85,4.9,1.58,7.41,2.13c1.99,0.43,4.05,0.78,6.09,0.49c1.8-0.26,3.62-0.97,4.73-2.49
			c1.26-1.72,1.13-3.82,0.23-5.66c-1.9-3.93-6.32-6.66-9.99-8.73c-4.14-2.34-8.57-4.11-13.04-5.7c-19.3-6.85-39.72-10.4-60.17-11.11
			c-10.29-0.36-20.59-0.04-30.83,0.94c-8.04,0.77-20.26,1.16-23.01,10.66c-0.54,1.85-0.5,3.78,0.28,5.55
			C46.24,84.6,49.12,83.77,48.56,82.52L48.56,82.52z"/>
	</g>
</g>
<g>
	<path d="M53.97,118.17c-2.23-2.62-2.12-6.7-0.41-9.69c1.72-2.99,4.75-5.01,7.92-6.36c7.69-3.27,16.35-3.06,24.7-2.75
		c28.88,1.09,59.34,3.43,83.18,19.77c2.17,1.49,4.53,3.72,3.93,6.29c-0.52,2.22-3.02,3.34-5.27,3.66
		c-5.31,0.75-10.61-1.1-15.67-2.89c-16.02-5.66-32.29-10.97-49.13-13.23c-16.84-2.26-34.42-1.33-50.12,5.15"/>
	<g>
		<path d="M55.32,117.63c-2.45-3.05-1.85-7.49,0.42-10.45c2.48-3.23,6.48-4.95,10.32-5.95c8.26-2.15,17.16-1.28,25.59-0.89
			c16.31,0.75,32.8,2.11,48.56,6.63c7.74,2.22,15.29,5.21,22.28,9.23c1.76,1.02,3.49,2.09,5.18,3.24c1.54,1.05,3.26,2.31,3.97,4.1
			c0.68,1.72,0.02,3.51-1.63,4.34c-1.76,0.89-4.09,0.75-5.99,0.53c-4.64-0.53-9.05-2.35-13.42-3.88c-4.43-1.55-8.87-3.05-13.34-4.46
			c-8.71-2.75-17.55-5.14-26.54-6.76c-17.19-3.1-35.31-3.27-52.07,2.12c-2.06,0.66-4.09,1.4-6.08,2.21
			c-0.39,0.16-1.13,0.52-0.81,1.02c0.28,0.46,1.57,0.08,1.9-0.05c17.55-7.18,37.07-7.2,55.49-3.85c9.76,1.77,19.32,4.48,28.74,7.54
			c4.61,1.5,9.19,3.09,13.76,4.7c4.47,1.58,9.12,3.14,13.93,2.97c3.12-0.11,7.93-0.97,9.09-4.44c1.32-3.96-3.66-6.81-6.36-8.52
			c-7.08-4.5-14.79-7.91-22.78-10.42c-16.41-5.17-33.69-6.75-50.79-7.59c-8.94-0.44-18.21-1.26-27.04,0.58
			c-7.04,1.47-16.86,5.5-16.85,14.09c0,1.87,0.61,3.59,1.78,5.04C53.15,119.37,55.93,118.39,55.32,117.63L55.32,117.63z"/>
	</g>
</g>
<g>
	<path d="M61.88,146.58c-2.5-0.13-5.68-0.82-6.08-3.29c-0.28-1.74,1.09-3.28,2.47-4.37c7.47-5.9,17.62-6.92,27.14-7
		c17.84-0.15,35.69,2.17,52.89,6.88c5.28,1.45,10.56,3.14,15.26,5.96c3.07,1.84,6.17,5.05,5.21,8.5c-0.75,2.7-3.83,4.19-6.63,4.1
		s-5.4-1.38-7.95-2.55c-26.43-12.23-57.05-15.17-85.33-8.18"/>
	<g>
		<path d="M62.79,145.9c-2.32-0.14-6.46-0.98-5.43-4.27c0.49-1.57,2.04-2.65,3.33-3.54c1.44-1,3-1.83,4.62-2.49
			c6.14-2.53,12.94-2.93,19.5-2.99c16.03-0.14,32.09,1.76,47.65,5.6c3.63,0.9,7.25,1.86,10.79,3.07c3.54,1.21,7.22,2.65,10.25,4.89
			c2.44,1.8,5.19,5.06,3.46,8.24c-1.74,3.19-5.59,2.31-8.34,1.23c-3.43-1.35-6.72-3.04-10.15-4.39c-3.42-1.34-6.9-2.54-10.43-3.58
			c-6.85-2.03-13.87-3.49-20.96-4.39c-16.13-2.04-32.58-1.09-48.37,2.78c-0.34,0.08-1.43,0.44-1.3,0.96
			c0.14,0.52,1.31,0.26,1.6,0.18c15.38-3.77,31.42-4.54,47.11-2.45c7.86,1.05,15.61,2.81,23.15,5.28c3.7,1.21,7.35,2.6,10.93,4.14
			c3.54,1.53,7.08,3.69,11.02,3.87c2.85,0.13,6.26-0.88,8.07-3.22c2.12-2.75,0.79-6.05-1.41-8.27c-2.61-2.63-6.31-4.24-9.71-5.57
			c-3.88-1.52-7.93-2.62-11.96-3.65c-16.51-4.21-33.57-6.27-50.61-6.08c-7.08,0.08-14.35,0.69-20.99,3.32
			c-3.12,1.24-6.5,2.95-8.82,5.45c-2.1,2.26-1.86,5.16,1.08,6.43c1.27,0.55,2.71,0.74,4.08,0.82c0.64,0.04,1.56-0.08,2.05-0.55
			C63.38,146.36,63.45,145.94,62.79,145.9L62.79,145.9z"/>
	</g>
</g>
</svg>
