<svg version="1.0" id="Layer_1" xmlns="http://www.w3.org/2000/svg" xmlns:xlink="http://www.w3.org/1999/xlink" x="0px" y="0px"
	 viewBox="0 0 200 200" style="enable-background:new 0 0 200 200;" xml:space="preserve">
	<path class="st0" d="M69.7,56.1c2.4,2.1,6.6,1.5,8.7,4c0.8,1,1.2,2.2,1.4,3.5c2.2,9.4,2.5,19.1,1,28.6c-0.2,1.3-0.5,2.6-1.3,3.7
		C78,98.2,74.4,98.3,72,97s-4.2-3.7-5.7-6.1c-4.9-7.5-9.4-15.4-13.4-23.5c-1.7-3.5-2.5-8.2-5.3-11c-3.8-3.8-10.6-2.8-16-3
		s-10.7-0.1-16,1c-0.8,0.2-1.4-0.3-1.9,0.4c-0.5,0.6-0.5,1.5-0.4,2.3c0.6,9.2,5.4,17.5,10.4,25.3c5.3,8.2,9.7,17.8,15,26
		c4.3,6.7,8.6,13.2,14,19c13.6,14.8,35.3,21.9,55.4,20.7c1.2-0.1,2.4-0.2,3.4-0.8c3-1.7,2.6-6.1,2.5-9.5c-0.1-4.8,2-10.6,6.8-11.4
		c3.1-0.5,6,1.4,8.4,3.5c6.3,5.6,11.4,14.7,19.4,17.5c3.5,1.2,8.3,0.9,12,1c5.4,0.2,9.5-0.3,14.9-0.1c3.8,0.1,8.6-0.2,10.2-3.7
		c1.5-3.2-0.8-6.9-3-9.7c-5.9-7.4-12.6-14.6-19-21.5c-2-2.2-6.1-5-6-8c0.1-2.6,2.4-6,4-8c4.9-5.9,9-10.4,13-17
		c4.7-7.7,11.3-16.1,12-25.1c-4-1.7-8.5-1.6-12.8-1.5c-6.2,0.1-12.4,0.2-18.7,0.4c-1.8,0-3.6,0.1-5.3,0.8c-3.3,1.4-5.1,4.8-6.7,8
		c-5.6,10.9-10.8,21-18.5,30.5c-1.4,1.7-5,5.8-7,5c-1.7-0.7-2.8-2.2-3-4c-1.2-8.5-1-19.7-0.7-28.3c0.2-5,0.8-10.9-3.3-13.7
		c-1.9-1.3-5-1.7-7.4-2c-11.7-1.4-24.8-2.4-33.9,5.1"/>
</svg>
